<?xml version="1.0" encoding="UTF-8" standalone="no"?>
<!DOCTYPE svg PUBLIC "-//W3C//DTD SVG 1.1//EN" "http://www.w3.org/Graphics/SVG/1.1/DTD/svg11.dtd">
<svg width="100%" height="100%" viewBox="0 0 1600 900" version="1.1" xmlns="http://www.w3.org/2000/svg" xmlns:xlink="http://www.w3.org/1999/xlink" xml:space="preserve" xmlns:serif="http://www.serif.com/" style="fill-rule:evenodd;clip-rule:evenodd;stroke-linecap:round;stroke-linejoin:round;stroke-miterlimit:1.5;">
    <g id="FoundationPlate" transform="matrix(1.0428,0,0,1.19407,48.0082,-25.0961)">
        <g transform="matrix(0.521762,0,0,0.571716,426.226,54.9563)">
            <path d="M623.239,126.164C623.239,119.598 616.55,114.267 608.312,114.267L159.02,114.267C150.782,114.267 144.093,119.598 144.093,126.164L144.093,627.106C144.093,633.672 150.782,639.003 159.02,639.003L608.312,639.003C616.55,639.003 623.239,633.672 623.239,627.106L623.239,126.164Z" style="fill:white;stroke:black;stroke-width:3.24px;"/>
        </g>
        <g transform="matrix(0.507713,0,0,0.562016,431.616,58.6094)">
            <path d="M623.239,148.763L623.239,123.481C623.239,118.396 618.005,114.267 611.559,114.267L155.773,114.267C149.327,114.267 144.093,118.396 144.093,123.481L144.093,151.471" style="fill:rgb(235,235,235);fill-opacity:0;stroke:rgb(0,255,154);stroke-width:3.31px;"/>
        </g>
        <g transform="matrix(0.507713,0,0,0.562016,431.616,58.6094)">
            <path d="M144.093,183.11L144.093,211.495" style="fill:none;stroke:rgb(0,255,154);stroke-width:3.31px;"/>
        </g>
        <g transform="matrix(0.507713,0,0,0.562016,431.616,58.6094)">
            <path d="M144.093,243.134L144.093,268.993" style="fill:none;stroke:rgb(0,255,154);stroke-width:3.31px;"/>
        </g>
        <g transform="matrix(0.507713,0,0,0.562016,431.616,58.6094)">
            <path d="M144.093,300.632L144.093,329.017" style="fill:none;stroke:rgb(0,255,154);stroke-width:3.31px;"/>
        </g>
        <g transform="matrix(0.507713,0,0,0.562016,431.616,58.6094)">
            <path d="M144.093,360.656L144.093,390.015" style="fill:none;stroke:rgb(0,255,154);stroke-width:3.31px;"/>
        </g>
        <g transform="matrix(0.507713,0,0,0.562016,431.616,58.6094)">
            <path d="M144.093,421.653L144.093,450.039" style="fill:none;stroke:rgb(0,255,154);stroke-width:3.31px;"/>
        </g>
        <g transform="matrix(0.507713,0,0,0.562016,431.616,58.6094)">
            <path d="M144.093,481.678L144.093,506.851" style="fill:none;stroke:rgb(0,255,154);stroke-width:3.31px;"/>
        </g>
        <g transform="matrix(0.507713,0,0,0.562016,431.616,58.6094)">
            <path d="M144.093,538.49L144.093,566.875" style="fill:none;stroke:rgb(0,255,154);stroke-width:3.31px;"/>
        </g>
        <g transform="matrix(0.507713,0,0,0.562016,431.616,58.6094)">
            <path d="M144.093,598.514L144.093,629.788C144.093,634.874 149.327,639.003 155.773,639.003L611.559,639.003C618.005,639.003 623.239,634.874 623.239,629.788L623.239,601.907" style="fill:rgb(235,235,235);fill-opacity:0;stroke:rgb(0,255,154);stroke-width:3.31px;"/>
        </g>
        <g transform="matrix(0.507713,0,0,0.562016,431.616,58.6094)">
            <path d="M623.239,570.269L623.239,541.883" style="fill:none;stroke:rgb(0,255,154);stroke-width:3.31px;"/>
        </g>
        <g transform="matrix(0.507713,0,0,0.562016,431.616,58.6094)">
            <path d="M623.239,510.245L623.239,481.678" style="fill:none;stroke:rgb(0,255,154);stroke-width:3.31px;"/>
        </g>
        <g transform="matrix(0.507713,0,0,0.562016,431.616,58.6094)">
            <path d="M623.239,450.039L623.239,421.653" style="fill:none;stroke:rgb(0,255,154);stroke-width:3.31px;"/>
        </g>
        <g transform="matrix(0.507713,0,0,0.562016,431.616,58.6094)">
            <path d="M623.239,390.015L623.239,360.656" style="fill:none;stroke:rgb(0,255,154);stroke-width:3.31px;"/>
        </g>
        <g transform="matrix(0.507713,0,0,0.562016,431.616,58.6094)">
            <path d="M623.239,329.017L623.239,300.632" style="fill:none;stroke:rgb(0,255,154);stroke-width:3.31px;"/>
        </g>
        <g transform="matrix(0.507713,0,0,0.562016,431.616,58.6094)">
            <path d="M623.239,268.993L623.239,240.426" style="fill:none;stroke:rgb(0,255,154);stroke-width:3.31px;"/>
        </g>
        <g transform="matrix(0.507713,0,0,0.562016,431.616,58.6094)">
            <path d="M623.239,208.787L623.239,180.402" style="fill:none;stroke:rgb(0,255,154);stroke-width:3.31px;"/>
        </g>
        <g transform="matrix(2.90042e-16,-4.17189,4.77708,2.53298e-16,-457.883,1561.54)">
            <text x="294.077px" y="224.915px" style="font-family:'ArialMT', 'Arial', sans-serif;font-size:8px;">pi-top [4]</text>
            <text x="281.172px" y="233.177px" style="font-family:'ArialMT', 'Arial', sans-serif;font-size:8px;">foundation plate</text>
        </g>
        <g transform="matrix(0.958955,0,0,0.83747,50.7836,-65.8737)">
            <path d="M730.613,369.441L713.912,369.441L713.912,390.674L730.613,390.674" style="fill:rgb(235,235,235);fill-opacity:0;stroke:rgb(171,20,124);stroke-width:2px;stroke-linecap:square;"/>
        </g>
        <g transform="matrix(0.958955,0,0,0.83747,50.7836,-99.6082)">
            <path d="M730.613,369.441L713.912,369.441L713.912,390.674L730.613,390.674" style="fill:rgb(235,235,235);fill-opacity:0;stroke:rgb(171,20,124);stroke-width:2px;stroke-linecap:square;"/>
        </g>
        <g transform="matrix(0.958955,0,0,0.83747,50.7836,-133.445)">
            <path d="M730.613,369.441L713.912,369.441L713.912,390.674L730.613,390.674" style="fill:rgb(235,235,235);fill-opacity:0;stroke:rgb(20,47,171);stroke-width:2px;stroke-linecap:square;"/>
        </g>
        <g transform="matrix(0.958955,0,0,0.83747,50.7836,-167.179)">
            <path d="M730.613,369.441L713.912,369.441L713.912,390.674L730.613,390.674" style="fill:rgb(235,235,235);fill-opacity:0;stroke:rgb(20,47,171);stroke-width:2px;stroke-linecap:square;"/>
        </g>
        <g transform="matrix(0.958955,0,0,0.83747,50.7836,69.7137)">
            <path d="M730.613,369.441L713.912,369.441L713.912,390.674L730.613,390.674" style="fill:rgb(235,235,235);fill-opacity:0;stroke:rgb(255,216,0);stroke-width:2px;stroke-linecap:square;"/>
        </g>
        <g transform="matrix(0.958955,0,0,0.83747,50.7836,35.9791)">
            <path d="M730.613,369.441L713.912,369.441L713.912,390.674L730.613,390.674" style="fill:rgb(235,235,235);fill-opacity:0;stroke:rgb(255,216,0);stroke-width:2px;stroke-linecap:square;"/>
        </g>
        <g transform="matrix(0.958955,0,0,0.83747,50.7836,2.14249)">
            <path d="M730.613,369.441L713.912,369.441L713.912,390.674L730.613,390.674" style="fill:rgb(235,235,235);fill-opacity:0;stroke:rgb(171,20,124);stroke-width:2px;stroke-linecap:square;"/>
        </g>
        <g transform="matrix(0.958955,0,0,0.83747,50.7836,-31.592)">
            <path d="M730.613,369.441L713.912,369.441L713.912,390.674L730.613,390.674" style="fill:rgb(235,235,235);fill-opacity:0;stroke:rgb(171,20,124);stroke-width:2px;stroke-linecap:square;"/>
        </g>
        <g transform="matrix(-0.958955,-4.64889e-17,5.32327e-17,-0.83747,1202.03,604.982)">
            <path d="M730.613,369.441L713.912,369.441L713.912,390.674L730.613,390.674" style="fill:rgb(235,235,235);fill-opacity:0;stroke:rgb(171,20,124);stroke-width:2px;stroke-linecap:square;"/>
        </g>
        <g transform="matrix(-0.958955,-4.64889e-17,5.32327e-17,-0.83747,1202.03,638.716)">
            <path d="M730.613,369.441L713.912,369.441L713.912,390.674L730.613,390.674" style="fill:rgb(235,235,235);fill-opacity:0;stroke:rgb(171,20,124);stroke-width:2px;stroke-linecap:square;"/>
        </g>
        <g transform="matrix(-0.958955,-4.64889e-17,5.32327e-17,-0.83747,1202.03,470.916)">
            <path d="M730.613,369.441L713.912,369.441L713.912,390.674L730.613,390.674" style="fill:rgb(235,235,235);fill-opacity:0;stroke:rgb(255,216,0);stroke-width:2px;stroke-linecap:square;"/>
        </g>
        <g transform="matrix(-0.958955,-4.64889e-17,5.32327e-17,-0.83747,1202.03,504.651)">
            <path d="M730.613,369.441L713.912,369.441L713.912,390.674L730.613,390.674" style="fill:rgb(235,235,235);fill-opacity:0;stroke:rgb(255,216,0);stroke-width:2px;stroke-linecap:square;"/>
        </g>
        <g transform="matrix(-0.958955,-4.64889e-17,5.32327e-17,-0.83747,1202.03,670.646)">
            <path d="M730.613,369.441L713.912,369.441L713.912,390.674L730.613,390.674" style="fill:rgb(235,235,235);fill-opacity:0;stroke:rgb(20,47,171);stroke-width:2px;stroke-linecap:square;"/>
        </g>
        <g transform="matrix(-0.958955,-4.64889e-17,5.32327e-17,-0.83747,1202.03,704.38)">
            <path d="M730.613,369.441L713.912,369.441L713.912,390.674L730.613,390.674" style="fill:rgb(235,235,235);fill-opacity:0;stroke:rgb(20,47,171);stroke-width:2px;stroke-linecap:square;"/>
        </g>
        <g transform="matrix(-0.958955,-4.64889e-17,5.32327e-17,-0.83747,1202.03,536.966)">
            <path d="M730.613,369.441L713.912,369.441L713.912,390.674L730.613,390.674" style="fill:rgb(235,235,235);fill-opacity:0;stroke:rgb(171,20,124);stroke-width:2px;stroke-linecap:square;"/>
        </g>
        <g transform="matrix(-0.958955,-4.64889e-17,5.32327e-17,-0.83747,1202.03,570.7)">
            <path d="M730.613,369.441L713.912,369.441L713.912,390.674L730.613,390.674" style="fill:rgb(235,235,235);fill-opacity:0;stroke:rgb(171,20,124);stroke-width:2px;stroke-linecap:square;"/>
        </g>
        <g transform="matrix(2.26073,0,0,1.97433,-836.641,-128.974)">
            <text x="683.295px" y="178.773px" style="font-family:'ArialMT', 'Arial', sans-serif;font-size:8px;">D3</text>
        </g>
        <g transform="matrix(2.26073,0,0,1.97433,-836.641,-96.3128)">
            <text x="683.295px" y="178.773px" style="font-family:'ArialMT', 'Arial', sans-serif;font-size:8px;">D2</text>
        </g>
        <g transform="matrix(2.26073,0,0,1.97433,-836.641,-61.9766)">
            <text x="683.295px" y="178.773px" style="font-family:'ArialMT', 'Arial', sans-serif;font-size:8px;">D1</text>
        </g>
        <g transform="matrix(2.26073,0,0,1.97433,-836.641,-29.0497)">
            <text x="683.295px" y="178.773px" style="font-family:'ArialMT', 'Arial', sans-serif;font-size:8px;">D0</text>
        </g>
        <g transform="matrix(2.26073,0,0,1.97433,-1024.6,-128.974)">
            <text x="683.295px" y="178.773px" style="font-family:'ArialMT', 'Arial', sans-serif;font-size:8px;">D4</text>
        </g>
        <g transform="matrix(2.26073,0,0,1.97433,-1024.6,-96.3128)">
            <text x="683.295px" y="178.773px" style="font-family:'ArialMT', 'Arial', sans-serif;font-size:8px;">D5</text>
        </g>
        <g transform="matrix(2.26073,0,0,1.97433,-1024.6,-61.9766)">
            <text x="683.295px" y="178.773px" style="font-family:'ArialMT', 'Arial', sans-serif;font-size:8px;">D6</text>
        </g>
        <g transform="matrix(2.26073,0,0,1.97433,-1024.6,-29.0497)">
            <text x="683.295px" y="178.773px" style="font-family:'ArialMT', 'Arial', sans-serif;font-size:8px;">D7</text>
        </g>
        <g transform="matrix(2.26073,0,0,1.97433,-841.435,6.696)">
            <text x="683.295px" y="178.773px" style="font-family:'ArialMT', 'Arial', sans-serif;font-size:8px;">I2C</text>
        </g>
        <g transform="matrix(2.26073,0,0,1.97433,-841.435,39.6228)">
            <text x="683.295px" y="178.773px" style="font-family:'ArialMT', 'Arial', sans-serif;font-size:8px;">I2C</text>
        </g>
        <g transform="matrix(2.26073,0,0,1.97433,-1024.6,-194.941)">
            <text x="683.295px" y="178.773px" style="font-family:'ArialMT', 'Arial', sans-serif;font-size:8px;">I2C</text>
        </g>
        <g transform="matrix(2.26073,0,0,1.97433,-1024.6,-162.014)">
            <text x="683.295px" y="178.773px" style="font-family:'ArialMT', 'Arial', sans-serif;font-size:8px;">I2C</text>
        </g>
        <g transform="matrix(2.26073,0,0,1.97433,-836.641,-194.297)">
            <text x="683.295px" y="178.773px" style="font-family:'ArialMT', 'Arial', sans-serif;font-size:8px;">A1</text>
        </g>
        <g transform="matrix(2.26073,0,0,1.97433,-836.641,-161.37)">
            <text x="683.295px" y="178.773px" style="font-family:'ArialMT', 'Arial', sans-serif;font-size:8px;">A0</text>
        </g>
        <g transform="matrix(2.26073,0,0,1.97433,-1024.6,6.95465)">
            <text x="683.295px" y="178.773px" style="font-family:'ArialMT', 'Arial', sans-serif;font-size:8px;">A2</text>
        </g>
        <g transform="matrix(2.26073,0,0,1.97433,-1024.6,39.8815)">
            <text x="683.295px" y="178.773px" style="font-family:'ArialMT', 'Arial', sans-serif;font-size:8px;">A3</text>
        </g>
    </g>
    <g id="A3Line" transform="matrix(1,0,0,1,-465.467,-3.95927)">
        <path d="M827.964,469.271L866.25,467.464L944.568,440.542L1041.39,441.083" style="fill:none;stroke:black;stroke-width:11px;stroke-linecap:square;"/>
    </g>
    <g id="A2Line" transform="matrix(1,0,0,1,-465.467,-43.5323)">
        <path d="M825.429,461.776L866.007,462.122L945.83,440.549L1041.39,441.083" style="fill:none;stroke:black;stroke-width:11px;stroke-linecap:square;"/>
    </g>
    <g id="D7Line" transform="matrix(1,0,0,1,-465.467,-82.0014)">
        <path d="M825.429,452.968L863.85,452.602L945.425,440.546L1041.39,441.083" style="fill:none;stroke:black;stroke-width:11px;stroke-linecap:square;"/>
    </g>
    <g id="D6Line" transform="matrix(1,0,0,1,-465.467,-122.243)">
        <path d="M825.429,449.825L863.58,449.319L945.966,440.549L1041.39,441.083" style="fill:none;stroke:black;stroke-width:11px;stroke-linecap:square;"/>
    </g>
    <g id="D5Line" transform="matrix(1,0,0,1,-465.467,-163.378)">
        <path d="M825.429,438.876L865.328,439.149L944.183,440.54L1041.39,441.083" style="fill:none;stroke:black;stroke-width:11px;stroke-linecap:square;"/>
    </g>
    <g id="D4Line" transform="matrix(1,0,0,1,-465.467,-203.614)">
        <path d="M825.429,435.727L862.406,435.727L945.578,440.547L1041.39,441.083" style="fill:none;stroke:black;stroke-width:11px;stroke-linecap:square;"/>
    </g>
    <g id="I2CL2" transform="matrix(1,0,0,1,-465.467,-241.817)">
        <path d="M825.429,426.196L864.532,426.196L944.489,440.541L1041.39,441.083" style="fill:none;stroke:black;stroke-width:11px;stroke-linecap:square;"/>
    </g>
    <g id="I2CL1" transform="matrix(1,0,0,1,-465.467,-282.358)">
        <path d="M825.429,416.239L865.467,416.496L945.724,440.548L1041.39,441.083" style="fill:none;stroke:black;stroke-width:11px;stroke-linecap:square;"/>
    </g>
    <g transform="matrix(1,0,0,1,0,-82)">
        <g id="Button" transform="matrix(1,0,0,1,-422.033,348.635)">
            <g transform="matrix(0.0834819,0,0,0.0762288,749.965,171.09)">
                <path d="M623.239,203.06C623.239,154.054 586.908,114.267 542.16,114.267L225.172,114.267C180.423,114.267 144.093,154.054 144.093,203.06L144.093,550.209C144.093,599.216 180.423,639.003 225.172,639.003L542.16,639.003C586.908,639.003 623.239,599.216 623.239,550.209L623.239,203.06Z" style="fill:rgb(255,253,253);stroke:black;stroke-width:25.02px;"/>
            </g>
            <g transform="matrix(1,0,0,1,-3.08962,66.5187)">
                <text x="768.748px" y="149.76px" style="font-family:'ArialMT', 'Arial', sans-serif;font-size:8px;">BUTT<tspan x="789.49px 795.713px " y="149.76px 149.76px ">ON</tspan></text>
            </g>
            <g transform="matrix(1,0,0,1,-6.56329,56.823)">
                <circle cx="788.557" cy="138.653" r="8.673" style="fill:rgb(235,235,235);fill-opacity:0;stroke:black;stroke-width:2px;"/>
            </g>
        </g>
        <g id="Button1" serif:id="Button" transform="matrix(1,0,0,1,-422.033,300.901)">
            <g transform="matrix(0.0834819,0,0,0.0762288,749.965,171.09)">
                <path d="M623.239,203.06C623.239,154.054 586.908,114.267 542.16,114.267L225.172,114.267C180.423,114.267 144.093,154.054 144.093,203.06L144.093,550.209C144.093,599.216 180.423,639.003 225.172,639.003L542.16,639.003C586.908,639.003 623.239,599.216 623.239,550.209L623.239,203.06Z" style="fill:rgb(255,253,253);stroke:black;stroke-width:25.02px;"/>
            </g>
            <g transform="matrix(1,0,0,1,-3.08962,66.5187)">
                <text x="768.748px" y="149.76px" style="font-family:'ArialMT', 'Arial', sans-serif;font-size:8px;">BUTT<tspan x="789.49px 795.713px " y="149.76px 149.76px ">ON</tspan></text>
            </g>
            <g transform="matrix(1,0,0,1,-6.56329,56.823)">
                <circle cx="788.557" cy="138.653" r="8.673" style="fill:rgb(235,235,235);fill-opacity:0;stroke:black;stroke-width:2px;"/>
            </g>
        </g>
        <g id="Button2" serif:id="Button" transform="matrix(1,0,0,1,-422.033,253.166)">
            <g transform="matrix(0.0834819,0,0,0.0762288,749.965,171.09)">
                <path d="M623.239,203.06C623.239,154.054 586.908,114.267 542.16,114.267L225.172,114.267C180.423,114.267 144.093,154.054 144.093,203.06L144.093,550.209C144.093,599.216 180.423,639.003 225.172,639.003L542.16,639.003C586.908,639.003 623.239,599.216 623.239,550.209L623.239,203.06Z" style="fill:rgb(255,253,253);stroke:black;stroke-width:25.02px;"/>
            </g>
            <g transform="matrix(1,0,0,1,-3.08962,66.5187)">
                <text x="768.748px" y="149.76px" style="font-family:'ArialMT', 'Arial', sans-serif;font-size:8px;">BUTT<tspan x="789.49px 795.713px " y="149.76px 149.76px ">ON</tspan></text>
            </g>
            <g transform="matrix(1,0,0,1,-6.56329,56.823)">
                <circle cx="788.557" cy="138.653" r="8.673" style="fill:rgb(235,235,235);fill-opacity:0;stroke:black;stroke-width:2px;"/>
            </g>
        </g>
        <g id="Button3" serif:id="Button" transform="matrix(1,0,0,1,-422.033,205.432)">
            <g transform="matrix(0.0834819,0,0,0.0762288,749.965,171.09)">
                <path d="M623.239,203.06C623.239,154.054 586.908,114.267 542.16,114.267L225.172,114.267C180.423,114.267 144.093,154.054 144.093,203.06L144.093,550.209C144.093,599.216 180.423,639.003 225.172,639.003L542.16,639.003C586.908,639.003 623.239,599.216 623.239,550.209L623.239,203.06Z" style="fill:rgb(255,253,253);stroke:black;stroke-width:25.02px;"/>
            </g>
            <g transform="matrix(1,0,0,1,-3.08962,66.5187)">
                <text x="768.748px" y="149.76px" style="font-family:'ArialMT', 'Arial', sans-serif;font-size:8px;">BUTT<tspan x="789.49px 795.713px " y="149.76px 149.76px ">ON</tspan></text>
            </g>
            <g transform="matrix(1,0,0,1,-6.56329,56.823)">
                <circle cx="788.557" cy="138.653" r="8.673" style="fill:rgb(235,235,235);fill-opacity:0;stroke:black;stroke-width:2px;"/>
            </g>
        </g>
        <g id="Button4" serif:id="Button" transform="matrix(1,0,0,1,-422.033,157.698)">
            <g transform="matrix(0.0834819,0,0,0.0762288,749.965,171.09)">
                <path d="M623.239,203.06C623.239,154.054 586.908,114.267 542.16,114.267L225.172,114.267C180.423,114.267 144.093,154.054 144.093,203.06L144.093,550.209C144.093,599.216 180.423,639.003 225.172,639.003L542.16,639.003C586.908,639.003 623.239,599.216 623.239,550.209L623.239,203.06Z" style="fill:rgb(255,253,253);stroke:black;stroke-width:25.02px;"/>
            </g>
            <g transform="matrix(1,0,0,1,-3.08962,66.5187)">
                <text x="768.748px" y="149.76px" style="font-family:'ArialMT', 'Arial', sans-serif;font-size:8px;">BUTT<tspan x="789.49px 795.713px " y="149.76px 149.76px ">ON</tspan></text>
            </g>
            <g transform="matrix(1,0,0,1,-6.56329,56.823)">
                <circle cx="788.557" cy="138.653" r="8.673" style="fill:rgb(235,235,235);fill-opacity:0;stroke:black;stroke-width:2px;"/>
            </g>
        </g>
        <g id="Button5" serif:id="Button" transform="matrix(1,0,0,1,-422.033,109.964)">
            <g transform="matrix(0.0834819,0,0,0.0762288,749.965,171.09)">
                <path d="M623.239,203.06C623.239,154.054 586.908,114.267 542.16,114.267L225.172,114.267C180.423,114.267 144.093,154.054 144.093,203.06L144.093,550.209C144.093,599.216 180.423,639.003 225.172,639.003L542.16,639.003C586.908,639.003 623.239,599.216 623.239,550.209L623.239,203.06Z" style="fill:rgb(255,253,253);stroke:black;stroke-width:25.02px;"/>
            </g>
            <g transform="matrix(1,0,0,1,-3.08962,66.5187)">
                <text x="768.748px" y="149.76px" style="font-family:'ArialMT', 'Arial', sans-serif;font-size:8px;">BUTT<tspan x="789.49px 795.713px " y="149.76px 149.76px ">ON</tspan></text>
            </g>
            <g transform="matrix(1,0,0,1,-6.56329,56.823)">
                <circle cx="788.557" cy="138.653" r="8.673" style="fill:rgb(235,235,235);fill-opacity:0;stroke:black;stroke-width:2px;"/>
            </g>
        </g>
        <g id="Button6" serif:id="Button" transform="matrix(1,0,0,1,-422.033,62.2298)">
            <g transform="matrix(0.0834819,0,0,0.0762288,749.965,171.09)">
                <path d="M623.239,203.06C623.239,154.054 586.908,114.267 542.16,114.267L225.172,114.267C180.423,114.267 144.093,154.054 144.093,203.06L144.093,550.209C144.093,599.216 180.423,639.003 225.172,639.003L542.16,639.003C586.908,639.003 623.239,599.216 623.239,550.209L623.239,203.06Z" style="fill:rgb(255,253,253);stroke:black;stroke-width:25.02px;"/>
            </g>
            <g transform="matrix(1,0,0,1,-3.08962,66.5187)">
                <text x="768.748px" y="149.76px" style="font-family:'ArialMT', 'Arial', sans-serif;font-size:8px;">BUTT<tspan x="789.49px 795.713px " y="149.76px 149.76px ">ON</tspan></text>
            </g>
            <g transform="matrix(1,0,0,1,-6.56329,56.823)">
                <circle cx="788.557" cy="138.653" r="8.673" style="fill:rgb(235,235,235);fill-opacity:0;stroke:black;stroke-width:2px;"/>
            </g>
        </g>
        <g id="Button7" serif:id="Button" transform="matrix(1,0,0,1,-422.033,14.4957)">
            <g transform="matrix(0.0834819,0,0,0.0762288,749.965,171.09)">
                <path d="M623.239,203.06C623.239,154.054 586.908,114.267 542.16,114.267L225.172,114.267C180.423,114.267 144.093,154.054 144.093,203.06L144.093,550.209C144.093,599.216 180.423,639.003 225.172,639.003L542.16,639.003C586.908,639.003 623.239,599.216 623.239,550.209L623.239,203.06Z" style="fill:rgb(255,253,253);stroke:black;stroke-width:25.02px;"/>
            </g>
            <g transform="matrix(1,0,0,1,-3.08962,66.5187)">
                <text x="768.748px" y="149.76px" style="font-family:'ArialMT', 'Arial', sans-serif;font-size:8px;">BUTT<tspan x="789.49px 795.713px " y="149.76px 149.76px ">ON</tspan></text>
            </g>
            <g transform="matrix(1,0,0,1,-6.56329,56.823)">
                <circle cx="788.557" cy="138.653" r="8.673" style="fill:rgb(235,235,235);fill-opacity:0;stroke:black;stroke-width:2px;"/>
            </g>
        </g>
    </g>
    <g id="I2CR2" transform="matrix(1,0,0,1,-15.0364,0.0279408)">
        <path d="M840.189,439.958L935.145,440.489L1014.66,472.94L1061.13,473.379" style="fill:none;stroke:black;stroke-width:11px;stroke-linecap:square;"/>
    </g>
    <g id="I2CR1" transform="matrix(1,0,0,1,-15.0364,-40.5769)">
        <path d="M840.189,439.958L934.19,440.484L1014.66,461.468L1061.13,461.901" style="fill:none;stroke:black;stroke-width:11px;stroke-linecap:square;"/>
    </g>
    <g id="D0Line" transform="matrix(1,0,0,1,-15.0364,-80.8766)">
        <path d="M840.189,439.958L936.223,440.495L1014.66,455.647L1061.13,455.215" style="fill:none;stroke:black;stroke-width:11px;stroke-linecap:square;"/>
    </g>
    <g id="D1Line" transform="matrix(1,0,0,1,-15.0364,-120.982)">
        <path d="M840.189,439.958L935.591,440.491L1014.66,449.524L1061.13,451.186" style="fill:none;stroke:black;stroke-width:11px;stroke-linecap:square;"/>
    </g>
    <g id="D2Line" transform="matrix(1,0,0,1,-15.0364,-161.35)">
        <path d="M840.189,439.958L935.782,440.493L1014.66,435.03L1061.13,435.148" style="fill:none;stroke:black;stroke-width:11px;stroke-linecap:square;"/>
    </g>
    <g id="D3Line" transform="matrix(1,0,0,1,-15.0364,-202.489)">
        <path d="M840.189,439.958L934.19,440.484L1014.66,434.353L1061.13,433.246" style="fill:none;stroke:black;stroke-width:11px;stroke-linecap:square;"/>
    </g>
    <g id="A0Line" transform="matrix(1,0,0,1,-15.0364,-241.939)">
        <path d="M840.189,439.958L934.715,440.487L1014.66,425.698L1061.13,425.662" style="fill:none;stroke:black;stroke-width:11px;stroke-linecap:square;"/>
    </g>
    <g id="A1Line" transform="matrix(1,0,0,1,-15.0364,-283.179)">
        <path d="M840.189,439.958L934.749,440.487L1014.66,418.622L1061.13,419.001" style="fill:none;stroke:black;stroke-width:11px;stroke-linecap:square;"/>
    </g>
    <g id="PlaceHolders" transform="matrix(1,0,0,1,0,-82)">
        <g id="Button8" serif:id="Button" transform="matrix(1,0,0,1,258.382,351.015)">
            <g transform="matrix(0.0834819,0,0,0.0762288,749.965,171.09)">
                <path d="M623.239,203.06C623.239,154.054 586.908,114.267 542.16,114.267L225.172,114.267C180.423,114.267 144.093,154.054 144.093,203.06L144.093,550.209C144.093,599.216 180.423,639.003 225.172,639.003L542.16,639.003C586.908,639.003 623.239,599.216 623.239,550.209L623.239,203.06Z" style="fill:rgb(255,253,253);stroke:black;stroke-width:25.02px;"/>
            </g>
            <g transform="matrix(1,0,0,1,-3.08962,66.5187)">
                <text x="768.748px" y="149.76px" style="font-family:'ArialMT', 'Arial', sans-serif;font-size:8px;">BUTT<tspan x="789.49px 795.713px " y="149.76px 149.76px ">ON</tspan></text>
            </g>
            <g transform="matrix(1,0,0,1,-6.56329,56.823)">
                <circle cx="788.557" cy="138.653" r="8.673" style="fill:rgb(235,235,235);fill-opacity:0;stroke:black;stroke-width:2px;"/>
            </g>
        </g>
        <g id="Button9" serif:id="Button" transform="matrix(1,0,0,1,258.382,303.281)">
            <g transform="matrix(0.0834819,0,0,0.0762288,749.965,171.09)">
                <path d="M623.239,203.06C623.239,154.054 586.908,114.267 542.16,114.267L225.172,114.267C180.423,114.267 144.093,154.054 144.093,203.06L144.093,550.209C144.093,599.216 180.423,639.003 225.172,639.003L542.16,639.003C586.908,639.003 623.239,599.216 623.239,550.209L623.239,203.06Z" style="fill:rgb(255,253,253);stroke:black;stroke-width:25.02px;"/>
            </g>
            <g transform="matrix(1,0,0,1,-3.08962,66.5187)">
                <text x="768.748px" y="149.76px" style="font-family:'ArialMT', 'Arial', sans-serif;font-size:8px;">BUTT<tspan x="789.49px 795.713px " y="149.76px 149.76px ">ON</tspan></text>
            </g>
            <g transform="matrix(1,0,0,1,-6.56329,56.823)">
                <circle cx="788.557" cy="138.653" r="8.673" style="fill:rgb(235,235,235);fill-opacity:0;stroke:black;stroke-width:2px;"/>
            </g>
        </g>
        <g id="Button10" serif:id="Button" transform="matrix(1,0,0,1,258.382,255.547)">
            <g transform="matrix(0.0834819,0,0,0.0762288,749.965,171.09)">
                <path d="M623.239,203.06C623.239,154.054 586.908,114.267 542.16,114.267L225.172,114.267C180.423,114.267 144.093,154.054 144.093,203.06L144.093,550.209C144.093,599.216 180.423,639.003 225.172,639.003L542.16,639.003C586.908,639.003 623.239,599.216 623.239,550.209L623.239,203.06Z" style="fill:rgb(255,253,253);stroke:black;stroke-width:25.02px;"/>
            </g>
            <g transform="matrix(1,0,0,1,-3.08962,66.5187)">
                <text x="768.748px" y="149.76px" style="font-family:'ArialMT', 'Arial', sans-serif;font-size:8px;">BUTT<tspan x="789.49px 795.713px " y="149.76px 149.76px ">ON</tspan></text>
            </g>
            <g transform="matrix(1,0,0,1,-6.56329,56.823)">
                <circle cx="788.557" cy="138.653" r="8.673" style="fill:rgb(235,235,235);fill-opacity:0;stroke:black;stroke-width:2px;"/>
            </g>
        </g>
        <g id="Button11" serif:id="Button" transform="matrix(1,0,0,1,258.382,207.813)">
            <g transform="matrix(0.0834819,0,0,0.0762288,749.965,171.09)">
                <path d="M623.239,203.06C623.239,154.054 586.908,114.267 542.16,114.267L225.172,114.267C180.423,114.267 144.093,154.054 144.093,203.06L144.093,550.209C144.093,599.216 180.423,639.003 225.172,639.003L542.16,639.003C586.908,639.003 623.239,599.216 623.239,550.209L623.239,203.06Z" style="fill:rgb(255,253,253);stroke:black;stroke-width:25.02px;"/>
            </g>
            <g transform="matrix(1,0,0,1,-3.08962,66.5187)">
                <text x="768.748px" y="149.76px" style="font-family:'ArialMT', 'Arial', sans-serif;font-size:8px;">BUTT<tspan x="789.49px 795.713px " y="149.76px 149.76px ">ON</tspan></text>
            </g>
            <g transform="matrix(1,0,0,1,-6.56329,56.823)">
                <circle cx="788.557" cy="138.653" r="8.673" style="fill:rgb(235,235,235);fill-opacity:0;stroke:black;stroke-width:2px;"/>
            </g>
        </g>
        <g id="Button12" serif:id="Button" transform="matrix(1,0,0,1,258.382,160.079)">
            <g transform="matrix(0.0834819,0,0,0.0762288,749.965,171.09)">
                <path d="M623.239,203.06C623.239,154.054 586.908,114.267 542.16,114.267L225.172,114.267C180.423,114.267 144.093,154.054 144.093,203.06L144.093,550.209C144.093,599.216 180.423,639.003 225.172,639.003L542.16,639.003C586.908,639.003 623.239,599.216 623.239,550.209L623.239,203.06Z" style="fill:rgb(255,253,253);stroke:black;stroke-width:25.02px;"/>
            </g>
            <g transform="matrix(1,0,0,1,-3.08962,66.5187)">
                <text x="768.748px" y="149.76px" style="font-family:'ArialMT', 'Arial', sans-serif;font-size:8px;">BUTT<tspan x="789.49px 795.713px " y="149.76px 149.76px ">ON</tspan></text>
            </g>
            <g transform="matrix(1,0,0,1,-6.56329,56.823)">
                <circle cx="788.557" cy="138.653" r="8.673" style="fill:rgb(235,235,235);fill-opacity:0;stroke:black;stroke-width:2px;"/>
            </g>
        </g>
        <g id="Button13" serif:id="Button" transform="matrix(1,0,0,1,258.382,112.345)">
            <g transform="matrix(0.0834819,0,0,0.0762288,749.965,171.09)">
                <path d="M623.239,203.06C623.239,154.054 586.908,114.267 542.16,114.267L225.172,114.267C180.423,114.267 144.093,154.054 144.093,203.06L144.093,550.209C144.093,599.216 180.423,639.003 225.172,639.003L542.16,639.003C586.908,639.003 623.239,599.216 623.239,550.209L623.239,203.06Z" style="fill:rgb(255,253,253);stroke:black;stroke-width:25.02px;"/>
            </g>
            <g transform="matrix(1,0,0,1,-3.08962,66.5187)">
                <text x="768.748px" y="149.76px" style="font-family:'ArialMT', 'Arial', sans-serif;font-size:8px;">BUTT<tspan x="789.49px 795.713px " y="149.76px 149.76px ">ON</tspan></text>
            </g>
            <g transform="matrix(1,0,0,1,-6.56329,56.823)">
                <circle cx="788.557" cy="138.653" r="8.673" style="fill:rgb(235,235,235);fill-opacity:0;stroke:black;stroke-width:2px;"/>
            </g>
        </g>
        <g id="Button14" serif:id="Button" transform="matrix(1,0,0,1,258.382,64.6105)">
            <g transform="matrix(0.0834819,0,0,0.0762288,749.965,171.09)">
                <path d="M623.239,203.06C623.239,154.054 586.908,114.267 542.16,114.267L225.172,114.267C180.423,114.267 144.093,154.054 144.093,203.06L144.093,550.209C144.093,599.216 180.423,639.003 225.172,639.003L542.16,639.003C586.908,639.003 623.239,599.216 623.239,550.209L623.239,203.06Z" style="fill:rgb(255,253,253);stroke:black;stroke-width:25.02px;"/>
            </g>
            <g transform="matrix(1,0,0,1,-3.08962,66.5187)">
                <text x="768.748px" y="149.76px" style="font-family:'ArialMT', 'Arial', sans-serif;font-size:8px;">BUTT<tspan x="789.49px 795.713px " y="149.76px 149.76px ">ON</tspan></text>
            </g>
            <g transform="matrix(1,0,0,1,-6.56329,56.823)">
                <circle cx="788.557" cy="138.653" r="8.673" style="fill:rgb(235,235,235);fill-opacity:0;stroke:black;stroke-width:2px;"/>
            </g>
        </g>
        <g id="Button15" serif:id="Button" transform="matrix(1,0,0,1,258.382,16.8764)">
            <g transform="matrix(0.0834819,0,0,0.0762288,749.965,171.09)">
                <path d="M623.239,203.06C623.239,154.054 586.908,114.267 542.16,114.267L225.172,114.267C180.423,114.267 144.093,154.054 144.093,203.06L144.093,550.209C144.093,599.216 180.423,639.003 225.172,639.003L542.16,639.003C586.908,639.003 623.239,599.216 623.239,550.209L623.239,203.06Z" style="fill:rgb(255,253,253);stroke:black;stroke-width:25.02px;"/>
            </g>
            <g transform="matrix(1,0,0,1,-3.08962,66.5187)">
                <text x="768.748px" y="149.76px" style="font-family:'ArialMT', 'Arial', sans-serif;font-size:8px;">BUTT<tspan x="789.49px 795.713px " y="149.76px 149.76px ">ON</tspan></text>
            </g>
            <g transform="matrix(1,0,0,1,-6.56329,56.823)">
                <circle cx="788.557" cy="138.653" r="8.673" style="fill:rgb(235,235,235);fill-opacity:0;stroke:black;stroke-width:2px;"/>
            </g>
        </g>
    </g>
    <g transform="matrix(1,0,0,1,-221.488,519.94)">
        <g transform="matrix(0.0834819,0,0,0.0762288,750.236,112.727)">
            <path d="M623.239,203.06C623.239,154.054 586.908,114.267 542.16,114.267L225.172,114.267C180.423,114.267 144.093,154.054 144.093,203.06L144.093,550.209C144.093,599.216 180.423,639.003 225.172,639.003L542.16,639.003C586.908,639.003 623.239,599.216 623.239,550.209L623.239,203.06Z" style="fill:white;stroke:black;stroke-width:25.02px;"/>
        </g>
        <g transform="matrix(1,0,0,1,-6.29204,-1.53952)">
            <circle cx="788.557" cy="138.653" r="8.673" style="fill:rgb(235,235,235);fill-opacity:0;stroke:black;stroke-width:2px;"/>
        </g>
        <g id="Light" transform="matrix(0.689751,0,0,0.689751,238.357,41.4775)">
            <circle cx="788.557" cy="138.653" r="8.673" style="fill:rgb(42,236,14);"/>
        </g>
        <g transform="matrix(1,0,0,1,5.38499,8.25384)">
            <text x="768.748px" y="149.76px" style="font-family:'ArialMT', 'Arial', sans-serif;font-size:8px;">LED</text>
        </g>
    </g>
    <g id="Button16" serif:id="Button" transform="matrix(1,0,0,1,-301.203,461.578)">
        <g transform="matrix(0.0834819,0,0,0.0762288,749.965,171.09)">
            <path d="M623.239,203.06C623.239,154.054 586.908,114.267 542.16,114.267L225.172,114.267C180.423,114.267 144.093,154.054 144.093,203.06L144.093,550.209C144.093,599.216 180.423,639.003 225.172,639.003L542.16,639.003C586.908,639.003 623.239,599.216 623.239,550.209L623.239,203.06Z" style="fill:white;stroke:black;stroke-width:25.02px;"/>
        </g>
        <g transform="matrix(1,0,0,1,-3.08962,66.5187)">
            <text x="768.748px" y="149.76px" style="font-family:'ArialMT', 'Arial', sans-serif;font-size:8px;">BUTT<tspan x="789.49px 795.713px " y="149.76px 149.76px ">ON</tspan></text>
        </g>
        <g id="ButtonState" transform="matrix(1,0,0,1,-6.56329,56.823)">
            <circle cx="788.557" cy="138.653" r="8.673" style="fill:rgb(235,235,235);fill-opacity:0;stroke:black;stroke-width:2px;"/>
        </g>
    </g>
    <g id="Buzzer" transform="matrix(1,0,0,1,-61.6439,461.578)">
        <g transform="matrix(0.0834819,0,0,0.0762288,749.965,171.09)">
            <path d="M623.239,203.06C623.239,154.054 586.908,114.267 542.16,114.267L225.172,114.267C180.423,114.267 144.093,154.054 144.093,203.06L144.093,550.209C144.093,599.216 180.423,639.003 225.172,639.003L542.16,639.003C586.908,639.003 623.239,599.216 623.239,550.209L623.239,203.06Z" style="fill:white;stroke:black;stroke-width:25.02px;"/>
        </g>
        <g transform="matrix(1,0,0,1,-3.08962,66.5187)">
            <text x="768.748px" y="149.76px" style="font-family:'ArialMT', 'Arial', sans-serif;font-size:8px;">BUZZER</text>
        </g>
        <g transform="matrix(1,0,0,1,-144.929,-4)">
            <g id="waves">
                <path d="M933.18,189.115C936.844,191.266 939.306,195.248 939.306,199.8C939.306,204.46 936.726,208.522 932.919,210.635" style="fill:rgb(235,235,235);fill-opacity:0;stroke:black;stroke-width:2px;"/>
                <path d="M920.686,210.498C917.011,208.349 914.54,204.361 914.54,199.8C914.54,195.347 916.896,191.44 920.429,189.258" style="fill:rgb(235,235,235);fill-opacity:0;stroke:black;stroke-width:2px;"/>
                <g transform="matrix(1.27179,0,0,1.27179,-251.928,-54.3035)">
                    <path d="M920.686,210.498C917.011,208.349 914.54,204.361 914.54,199.8C914.54,195.347 916.896,191.44 920.429,189.258" style="fill:rgb(235,235,235);fill-opacity:0;stroke:black;stroke-width:1.57px;"/>
                </g>
                <g transform="matrix(-1.27179,0.000527782,-0.000527782,-1.27179,2105.88,453.415)">
                    <path d="M920.686,210.498C917.011,208.349 914.54,204.361 914.54,199.8C914.54,195.347 916.896,191.44 920.429,189.258" style="fill:rgb(235,235,235);fill-opacity:0;stroke:black;stroke-width:1.57px;"/>
                </g>
            </g>
            <g transform="matrix(1,0,0,1,138.366,61.1472)">
                <circle cx="788.557" cy="138.653" r="8.673" style="fill:rgb(235,235,235);fill-opacity:0;stroke:black;stroke-width:2px;"/>
            </g>
        </g>
    </g>
    <g id="Sound" transform="matrix(1,0,0,1,17.3561,461.578)">
        <g transform="matrix(0.0834819,0,0,0.0762288,749.965,171.09)">
            <path d="M623.239,203.06C623.239,154.054 586.908,114.267 542.16,114.267L225.172,114.267C180.423,114.267 144.093,154.054 144.093,203.06L144.093,550.209C144.093,599.216 180.423,639.003 225.172,639.003L542.16,639.003C586.908,639.003 623.239,599.216 623.239,550.209L623.239,203.06Z" style="fill:white;stroke:black;stroke-width:25.02px;"/>
        </g>
        <g transform="matrix(1,0,0,1,-3.08962,66.5187)">
            <text x="768.748px" y="149.76px" style="font-family:'ArialMT', 'Arial', sans-serif;font-size:8px;">SOUND</text>
        </g>
        <g id="SoundLevel" transform="matrix(1,0,0,1,8.91038,58.5187)">
            <text x="768.748px" y="149.76px" style="font-family:'ArialMT', 'Arial', sans-serif;font-size:8px;">01</text>
        </g>
        <g transform="matrix(1,0,0,1,-144.929,-4)">
            <g transform="matrix(0.586987,0,0,0.586987,473.851,113.711)">
                <circle cx="788.557" cy="138.653" r="8.673" style="fill:rgb(235,235,235);fill-opacity:0;stroke:black;stroke-width:3.41px;"/>
            </g>
            <g transform="matrix(0.0293774,0,0,0.026825,906.652,185.697)">
                <path d="M623.239,203.06C623.239,154.054 586.908,114.267 542.16,114.267L225.172,114.267C180.423,114.267 144.093,154.054 144.093,203.06L144.093,550.209C144.093,599.216 180.423,639.003 225.172,639.003L542.16,639.003C586.908,639.003 623.239,599.216 623.239,550.209L623.239,203.06Z" style="fill:rgb(0,24,255);stroke:black;stroke-width:71.1px;"/>
            </g>
        </g>
    </g>
    <g id="Light1" serif:id="Light" transform="matrix(1,0,0,1,99.2505,461.578)">
        <g transform="matrix(0.0834819,0,0,0.0762288,749.965,171.09)">
            <path d="M623.239,203.06C623.239,154.054 586.908,114.267 542.16,114.267L225.172,114.267C180.423,114.267 144.093,154.054 144.093,203.06L144.093,550.209C144.093,599.216 180.423,639.003 225.172,639.003L542.16,639.003C586.908,639.003 623.239,599.216 623.239,550.209L623.239,203.06Z" style="fill:white;stroke:black;stroke-width:25.02px;"/>
        </g>
        <g id="_-LIGHT-" serif:id="(LIGHT)" transform="matrix(1,0,0,1,1.25413,66.5187)">
            <text x="768.748px" y="149.76px" style="font-family:'ArialMT', 'Arial', sans-serif;font-size:8px;">LIGHT</text>
        </g>
        <g id="LightLevel" transform="matrix(1,0,0,1,9.01604,56.5187)">
            <text x="768.748px" y="149.76px" style="font-family:'ArialMT', 'Arial', sans-serif;font-size:8px;">01</text>
        </g>
        <g transform="matrix(0.730603,0,0,0.730603,205.872,89.7984)">
            <circle cx="788.557" cy="138.653" r="8.673" style="fill:rgb(235,235,235);fill-opacity:0;stroke:black;stroke-width:2.74px;"/>
        </g>
    </g>
    <g id="Ultrasound" transform="matrix(1,0,0,1,-301.203,541.373)">
        <g transform="matrix(0.159967,0,0,0.0762288,738.944,171.09)">
            <path d="M623.239,203.06C623.239,154.054 604.279,114.267 580.926,114.267L186.406,114.267C163.053,114.267 144.093,154.054 144.093,203.06L144.093,550.209C144.093,599.216 163.053,639.003 186.406,639.003L580.926,639.003C604.279,639.003 623.239,599.216 623.239,550.209L623.239,203.06Z" style="fill:white;stroke:black;stroke-width:15.96px;"/>
        </g>
        <g transform="matrix(1,0,0,1,4.20682,66.8869)">
            <text x="768.748px" y="149.76px" style="font-family:'ArialMT', 'Arial', sans-serif;font-size:8px;">UL<tspan x="778.381px 783.267px " y="149.76px 149.76px ">TR</tspan>ASOUND</text>
        </g>
        <g id="UltrasoundLevel" transform="matrix(1,0,0,1,4.20682,57.8869)">
            <text x="791.56px" y="149.76px" style="font-family:'ArialMT', 'Arial', sans-serif;font-size:8px;">50</text>
        </g>
        <g transform="matrix(1.26023,0,0,1.26023,-214.772,20.3635)">
            <circle cx="788.557" cy="138.653" r="8.673" style="fill:rgb(235,235,235);fill-opacity:0;stroke:black;stroke-width:1.59px;"/>
        </g>
        <g transform="matrix(1.26023,0,0,1.26023,-172.447,20.3635)">
            <circle cx="788.557" cy="138.653" r="8.673" style="fill:rgb(235,235,235);fill-opacity:0;stroke:black;stroke-width:1.59px;"/>
        </g>
    </g>
    <g id="Potentiomenter" transform="matrix(1,0,0,1,-238.877,461.578)">
        <g transform="matrix(0.0834819,0,0,0.0762288,848.273,171.09)">
            <path d="M623.239,203.06C623.239,154.054 586.908,114.267 542.16,114.267L225.172,114.267C180.423,114.267 144.093,154.054 144.093,203.06L144.093,550.209C144.093,599.216 180.423,639.003 225.172,639.003L542.16,639.003C586.908,639.003 623.239,599.216 623.239,550.209L623.239,203.06Z" style="fill:white;stroke:black;stroke-width:25.02px;"/>
        </g>
        <g id="Pot" transform="matrix(1,0,0,1,0.271595,-4.96971)">
            <path d="M871.086,208.585L872.604,204.441C871.982,203.245 871.63,201.886 871.63,200.446C871.63,195.659 875.516,191.773 880.303,191.773C885.089,191.773 888.976,195.659 888.976,200.446C888.976,205.233 885.089,209.119 880.303,209.119C878.424,209.119 876.684,208.52 875.263,207.504L871.086,208.585Z" style="fill:rgb(235,235,235);fill-opacity:0;stroke:black;stroke-width:2px;"/>
            <g transform="matrix(0.743034,-0.597245,0.56137,0.698402,93.8923,710.93)">
                <rect x="971.577" y="104.115" width="13.572" height="3.795" style="fill:rgb(217,217,217);stroke:black;stroke-width:0.92px;stroke-linecap:square;"/>
            </g>
        </g>
        <g transform="matrix(1,0,0,1,103.104,66.5187)">
            <text x="768.748px" y="149.76px" style="font-family:'ArialMT', 'Arial', sans-serif;font-size:8px;">POT</text>
        </g>
    </g>
</svg>
