<?xml version="1.0" encoding="UTF-8" standalone="no"?>
<!DOCTYPE svg PUBLIC "-//W3C//DTD SVG 1.1//EN" "http://www.w3.org/Graphics/SVG/1.1/DTD/svg11.dtd">
<svg width="100%" height="100%" viewBox="0 0 42 42" version="1.1" xmlns="http://www.w3.org/2000/svg" xmlns:xlink="http://www.w3.org/1999/xlink" xml:space="preserve" xmlns:serif="http://www.serif.com/" style="fill-rule:evenodd;clip-rule:evenodd;stroke-linecap:round;stroke-linejoin:round;stroke-miterlimit:1.5;">
    <g transform="matrix(0.0834819,0,0,0.0762288,-11.0292,-7.71042)">
        <path d="M623.239,203.06C623.239,154.054 586.908,114.267 542.16,114.267L225.172,114.267C180.423,114.267 144.093,154.054 144.093,203.06L144.093,550.209C144.093,599.216 180.423,639.003 225.172,639.003L542.16,639.003C586.908,639.003 623.239,599.216 623.239,550.209L623.239,203.06Z" style="fill:white;stroke:black;stroke-width:25.02px;"/>
    </g>
    <g transform="matrix(1,0,0,1,-764.084,-112.282)">
        <text x="768.748px" y="149.76px" style="font-family:'ArialMT', 'Arial', sans-serif;font-size:8px;">BUZZER</text>
    </g>
    <g transform="matrix(1,0,0,1,-905.923,-182.8)">
        <g class="waves">
            <path d="M933.18,189.115C936.844,191.266 939.306,195.248 939.306,199.8C939.306,204.46 936.726,208.522 932.919,210.635" style="fill:rgb(235,235,235);fill-opacity:0;stroke:black;stroke-width:2px;"/>
            <path d="M920.686,210.498C917.011,208.349 914.54,204.361 914.54,199.8C914.54,195.347 916.896,191.44 920.429,189.258" style="fill:rgb(235,235,235);fill-opacity:0;stroke:black;stroke-width:2px;"/>
            <g transform="matrix(1.27179,0,0,1.27179,-251.928,-54.3035)">
                <path d="M920.686,210.498C917.011,208.349 914.54,204.361 914.54,199.8C914.54,195.347 916.896,191.44 920.429,189.258" style="fill:rgb(235,235,235);fill-opacity:0;stroke:black;stroke-width:1.57px;"/>
            </g>
            <g transform="matrix(-1.27179,0.000527782,-0.000527782,-1.27179,2105.88,453.415)">
                <path d="M920.686,210.498C917.011,208.349 914.54,204.361 914.54,199.8C914.54,195.347 916.896,191.44 920.429,189.258" style="fill:rgb(235,235,235);fill-opacity:0;stroke:black;stroke-width:1.57px;"/>
            </g>
        </g>
        <g transform="matrix(1,0,0,1,138.366,61.1472)">
            <circle cx="788.557" cy="138.653" r="8.673" style="fill:rgb(235,235,235);fill-opacity:0;stroke:black;stroke-width:2px;"/>
        </g>
    </g>
</svg>
