<?xml version="1.0" encoding="UTF-8" standalone="no"?>
<!DOCTYPE svg PUBLIC "-//W3C//DTD SVG 1.1//EN" "http://www.w3.org/Graphics/SVG/1.1/DTD/svg11.dtd">
<svg width="100%" height="100%" viewBox="0 0 42 42" version="1.1" xmlns="http://www.w3.org/2000/svg" xmlns:xlink="http://www.w3.org/1999/xlink" xml:space="preserve" xmlns:serif="http://www.serif.com/" style="fill-rule:evenodd;clip-rule:evenodd;stroke-linecap:round;stroke-linejoin:round;stroke-miterlimit:1.5;">
    <g transform="matrix(0.0834819,0,0,0.0762288,-11.0292,-7.71042)">
        <path d="M623.239,203.06C623.239,154.054 586.908,114.267 542.16,114.267L225.172,114.267C180.423,114.267 144.093,154.054 144.093,203.06L144.093,550.209C144.093,599.216 180.423,639.003 225.172,639.003L542.16,639.003C586.908,639.003 623.239,599.216 623.239,550.209L623.239,203.06Z" style="fill:white;stroke:black;stroke-width:25.02px;"/>
    </g>
    <g class="Pot" transform="matrix(1,0,0,1,-859.031,-183.77)">
        <path d="M871.086,208.585L872.604,204.441C871.982,203.245 871.63,201.886 871.63,200.446C871.63,195.659 875.516,191.773 880.303,191.773C885.089,191.773 888.976,195.659 888.976,200.446C888.976,205.233 885.089,209.119 880.303,209.119C878.424,209.119 876.684,208.52 875.263,207.504L871.086,208.585Z" style="fill:rgb(235,235,235);fill-opacity:0;stroke:black;stroke-width:2px;"/>
        <g transform="matrix(0.743034,-0.597245,0.56137,0.698402,93.8923,710.93)">
            <rect x="971.577" y="104.115" width="13.572" height="3.795" style="fill:rgb(217,217,217);stroke:black;stroke-width:0.92px;stroke-linecap:square;"/>
        </g>
    </g>
    <g transform="matrix(1,0,0,1,-756.199,-112.282)">
        <text x="768.748px" y="149.76px" style="font-family:'ArialMT', 'Arial', sans-serif;font-size:8px;">POT</text>
    </g>
</svg>
