<?xml version="1.0" encoding="UTF-8" standalone="no"?>
<!DOCTYPE svg PUBLIC "-//W3C//DTD SVG 1.1//EN" "http://www.w3.org/Graphics/SVG/1.1/DTD/svg11.dtd">
<svg width="100%" height="100%" viewBox="0 0 79 42" version="1.1" xmlns="http://www.w3.org/2000/svg" xmlns:xlink="http://www.w3.org/1999/xlink" xml:space="preserve" xmlns:serif="http://www.serif.com/" style="fill-rule:evenodd;clip-rule:evenodd;stroke-linecap:round;stroke-linejoin:round;stroke-miterlimit:1.5;">
    <g transform="matrix(0.159967,0,0,0.0762288,-22.0502,-7.71042)">
        <path d="M623.239,203.06C623.239,154.054 604.279,114.267 580.926,114.267L186.406,114.267C163.053,114.267 144.093,154.054 144.093,203.06L144.093,550.209C144.093,599.216 163.053,639.003 186.406,639.003L580.926,639.003C604.279,639.003 623.239,599.216 623.239,550.209L623.239,203.06Z" style="fill:white;stroke:black;stroke-width:15.96px;"/>
    </g>
    <g transform="matrix(1,0,0,1,-756.787,-111.913)">
        <text x="768.748px" y="149.76px" style="font-family:'ArialMT', 'Arial', sans-serif;font-size:8px;">UL<tspan x="778.381px 783.267px " y="149.76px 149.76px ">TR</tspan>ASOUND</text>
    </g>
    <g id="UltrasoundLevel" transform="matrix(1,0,0,1,-756.787,-120.913)">
        <text x="791.56px" y="149.76px" style="font-family:'ArialMT', 'Arial', sans-serif;font-size:8px;">50</text>
    </g>
    <g transform="matrix(1.26023,0,0,1.26023,-975.766,-158.437)">
        <circle cx="788.557" cy="138.653" r="8.673" style="fill:rgb(235,235,235);fill-opacity:0;stroke:black;stroke-width:1.59px;"/>
    </g>
    <g transform="matrix(1.26023,0,0,1.26023,-933.441,-158.437)">
        <circle cx="788.557" cy="138.653" r="8.673" style="fill:rgb(235,235,235);fill-opacity:0;stroke:black;stroke-width:1.59px;"/>
    </g>
</svg>
